# xmcd
# 
# Track frame offsets:
#     183
#     27080
#     54100
# 
# Disc length: 1115
# 
# Revision: 3
# Processed by: cddbd v1.5.2PL0 Copyright (c) Steve Scherf et al.
# Submitted via: fre:ac v1.0.31
# 
DISCID=16045903
DTITLE=Urban Cookie Collective - Feels Like Heaven
DYEAR=1993
DGENRE=Dance
TTITLE0=Feels Like Heaven [Extended To The Max Mix]
TTITLE1=Feels Like Heaven [Kamoflage Club Mix]
TTITLE2=Feels Like Heaven [Kamoflage Dub]
EXTD=
EXTT0=
EXTT1=
EXTT2=
PLAYORDER=
